<svg width="1600" height="120" viewBox="0 0 1600 120" fill="none" xmlns="http://www.w3.org/2000/svg">
<g clip-path="url(#clip0_4647_1320)">
<rect width="1600" height="120" fill="black"/>
<g opacity="0.4" clip-path="url(#clip1_4647_1320)">
<path d="M747.073 95.6735L629.237 162.12L731.647 0L747.073 95.6735Z" fill="url(#paint0_linear_4647_1320)"/>
<path d="M910.71 0L747.073 95.6735L731.647 0H910.71Z" fill="url(#paint1_linear_4647_1320)"/>
<path d="M817.961 161.831L747.073 95.6735L910.71 0L817.961 161.831Z" fill="url(#paint2_linear_4647_1320)"/>
<path d="M817.961 161.831L747.073 95.6736L629.237 162.12L817.961 161.831Z" fill="url(#paint3_linear_4647_1320)"/>
<path d="M258.535 235.152L236.059 111.537L62.1768 84.2358L258.535 235.152Z" fill="url(#paint4_linear_4647_1320)"/>
<path d="M362.088 0L236.059 111.537L258.535 235.152L362.088 0Z" fill="url(#paint5_linear_4647_1320)"/>
<path d="M236.059 111.537L62.1768 84.2358L362.088 0L236.059 111.537Z" fill="url(#paint6_linear_4647_1320)"/>
<path d="M1148.09 217.81L1241.16 80.4046L1138.88 0L1148.09 217.81Z" fill="url(#paint7_linear_4647_1320)"/>
<path d="M1241.16 80.4046L1466.08 84.9675L1138.88 0L1241.16 80.4046Z" fill="url(#paint8_linear_4647_1320)"/>
<path d="M1148.09 217.81L1241.16 80.4045L1466.08 84.9674L1148.09 217.81Z" fill="url(#paint9_linear_4647_1320)"/>
<path d="M0 299.368L119.782 271.523L62.1765 84.2358L0 299.368Z" fill="url(#paint10_linear_4647_1320)"/>
<path d="M119.726 271.523L258.535 235.152L62.1768 84.2358L119.726 271.523Z" fill="url(#paint11_linear_4647_1320)"/>
<path d="M62.1765 31.1476L0 0H362.088L62.1765 31.1476Z" fill="url(#paint12_linear_4647_1320)"/>
<path d="M362.088 0L494.73 161.831L629.237 162.12L362.088 0Z" fill="url(#paint13_linear_4647_1320)"/>
<path d="M362.087 0L258.534 235.152L494.73 161.831L362.087 0Z" fill="url(#paint14_linear_4647_1320)"/>
<path d="M62.1765 84.2359L0 147.441L62.1765 31.1477V84.2359Z" fill="url(#paint15_linear_4647_1320)"/>
<path d="M0 0L62.1765 31.1476L0 147.441V0Z" fill="url(#paint16_linear_4647_1320)"/>
<path d="M362.088 0L62.1768 84.2358V31.1476L362.088 0Z" fill="url(#paint17_linear_4647_1320)"/>
<path d="M62.1765 84.2358L0 299.368V147.441L62.1765 84.2358Z" fill="url(#paint18_linear_4647_1320)"/>
<path d="M629.237 162.12L598.192 55.771L362.088 0L629.237 162.12Z" fill="url(#paint19_linear_4647_1320)"/>
<path d="M731.647 0L629.237 162.12L598.191 55.771L731.647 0Z" fill="url(#paint20_linear_4647_1320)"/>
<path d="M362.088 0L598.192 55.771L604.988 22.4233L610.484 0H362.088Z" fill="url(#paint21_linear_4647_1320)"/>
<path d="M610.484 0L604.988 22.4233L598.191 55.771L731.647 0H610.484Z" fill="url(#paint22_linear_4647_1320)"/>
<path d="M975.777 204.533L937.946 117.579L817.961 161.831L975.777 204.533Z" fill="url(#paint23_linear_4647_1320)"/>
<path d="M910.71 0L937.946 117.579L817.961 161.831L910.71 0Z" fill="url(#paint24_linear_4647_1320)"/>
<path d="M1061.39 169.94L937.945 117.579L975.776 204.533L1061.39 169.94Z" fill="url(#paint25_linear_4647_1320)"/>
<path d="M910.71 0L1061.39 169.94L937.946 117.579L910.71 0Z" fill="url(#paint26_linear_4647_1320)"/>
<path d="M990.527 34.0642L910.71 0L994.118 94.073L990.527 34.0642Z" fill="url(#paint27_linear_4647_1320)"/>
<path d="M1049.7 0L990.527 34.0642L910.71 0H1049.7Z" fill="url(#paint28_linear_4647_1320)"/>
<path d="M994.118 94.073L1049.7 0L990.527 34.0642L994.118 94.073Z" fill="url(#paint29_linear_4647_1320)"/>
<path d="M1075.74 84.9675L1049.7 0H1138.88L1075.74 84.9675Z" fill="url(#paint30_linear_4647_1320)"/>
<path d="M1148.09 217.81L1075.74 84.9675L1138.89 0L1148.09 217.81Z" fill="url(#paint31_linear_4647_1320)"/>
<path d="M994.118 94.073L1075.74 84.9675L1049.7 0L994.118 94.073Z" fill="url(#paint32_linear_4647_1320)"/>
<path d="M1061.39 169.94L1075.74 84.9675L994.118 94.073L1061.39 169.94Z" fill="url(#paint33_linear_4647_1320)"/>
<path d="M1148.09 217.81L1075.74 84.9675L1061.39 169.94L1148.09 217.81Z" fill="url(#paint34_linear_4647_1320)"/>
<path d="M1370.01 225.508L1457.85 174.991L1466.08 84.9675L1370.01 225.508Z" fill="url(#paint35_linear_4647_1320)"/>
<path d="M1545.69 225.838L1457.85 174.991L1466.08 84.9675L1545.69 225.838Z" fill="url(#paint36_linear_4647_1320)"/>
<path d="M1466.08 84.9675L1352.37 166.083L1370.01 225.173L1466.08 84.9675Z" fill="url(#paint37_linear_4647_1320)"/>
<path d="M1271.91 166.083L1466.08 84.9675L1352.37 166.083H1271.91Z" fill="url(#paint38_linear_4647_1320)"/>
<path d="M1545.69 225.508L1556.82 108.905L1466.08 84.9675L1545.69 225.508Z" fill="url(#paint39_linear_4647_1320)"/>
<path d="M1600 0L1556.82 108.905L1466.08 84.9675L1600 0Z" fill="url(#paint40_linear_4647_1320)"/>
<path d="M1600 200.651L1545.69 225.508L1556.83 108.905L1600 200.651Z" fill="url(#paint41_linear_4647_1320)"/>
<path d="M1600 0L1556.83 108.905L1600 200.651V0Z" fill="url(#paint42_linear_4647_1320)"/>
<path d="M1403.29 34.0642L1466.08 84.9675L1600 0L1403.29 34.0642Z" fill="url(#paint43_linear_4647_1320)"/>
<path d="M1138.88 0L1403.29 34.0642L1600 0H1138.88Z" fill="url(#paint44_linear_4647_1320)"/>
<path d="M1466.08 84.9675L1138.88 0L1403.29 34.0642L1466.08 84.9675Z" fill="url(#paint45_linear_4647_1320)"/>
</g>
</g>
<defs>
<linearGradient id="paint0_linear_4647_1320" x1="629.237" y1="81.0601" x2="747.073" y2="81.0601" gradientUnits="userSpaceOnUse">
<stop stop-color="#1A1A1A"/>
<stop offset="1" stop-color="#2B2B2B"/>
</linearGradient>
<linearGradient id="paint1_linear_4647_1320" x1="731.647" y1="47.8393" x2="910.71" y2="47.8393" gradientUnits="userSpaceOnUse">
<stop stop-color="#454545"/>
<stop offset="0.66" stop-color="#353535"/>
<stop offset="1" stop-color="#2B2B2B"/>
</linearGradient>
<linearGradient id="paint2_linear_4647_1320" x1="747.073" y1="80.9178" x2="910.71" y2="80.9178" gradientUnits="userSpaceOnUse">
<stop stop-color="#1A1A1A"/>
<stop offset="1" stop-color="#2B2B2B"/>
</linearGradient>
<linearGradient id="paint3_linear_4647_1320" x1="629.237" y1="128.894" x2="817.961" y2="128.894" gradientUnits="userSpaceOnUse">
<stop stop-color="#242424"/>
<stop offset="1" stop-color="#161616"/>
</linearGradient>
<linearGradient id="paint4_linear_4647_1320" x1="175.797" y1="137.919" x2="237.41" y2="230.31" gradientUnits="userSpaceOnUse">
<stop stop-color="#242424"/>
<stop offset="1" stop-color="#0F0F0F"/>
</linearGradient>
<linearGradient id="paint5_linear_4647_1320" x1="300.536" y1="114.459" x2="241.342" y2="95.5893" gradientUnits="userSpaceOnUse">
<stop stop-color="#1A1A1A"/>
<stop offset="1" stop-color="#2B2B2B"/>
</linearGradient>
<linearGradient id="paint6_linear_4647_1320" x1="62.1768" y1="55.771" x2="362.088" y2="55.771" gradientUnits="userSpaceOnUse">
<stop stop-color="#454545"/>
<stop offset="0.66" stop-color="#353535"/>
<stop offset="1" stop-color="#2B2B2B"/>
</linearGradient>
<linearGradient id="paint7_linear_4647_1320" x1="1138.88" y1="108.905" x2="1241.16" y2="108.905" gradientUnits="userSpaceOnUse">
<stop stop-color="#1A1A1A"/>
<stop offset="1" stop-color="#2B2B2B"/>
</linearGradient>
<linearGradient id="paint8_linear_4647_1320" x1="1302.13" y1="75.3793" x2="1302.88" y2="5.90942" gradientUnits="userSpaceOnUse">
<stop stop-color="#454545"/>
<stop offset="0.66" stop-color="#353535"/>
<stop offset="1" stop-color="#2B2B2B"/>
</linearGradient>
<linearGradient id="paint9_linear_4647_1320" x1="1254.14" y1="77.4575" x2="1310.34" y2="155.877" gradientUnits="userSpaceOnUse">
<stop stop-color="#242424"/>
<stop offset="1" stop-color="#0F0F0F"/>
</linearGradient>
<linearGradient id="paint10_linear_4647_1320" x1="-6.30834" y1="294.089" x2="125.225" y2="137.055" gradientUnits="userSpaceOnUse">
<stop stop-color="#1A1A1A"/>
<stop offset="1" stop-color="#2B2B2B"/>
</linearGradient>
<linearGradient id="paint11_linear_4647_1320" x1="88.5715" y1="245.438" x2="163.711" y2="155.732" gradientUnits="userSpaceOnUse">
<stop stop-color="#2B2B2B"/>
<stop offset="0.34" stop-color="#353535"/>
<stop offset="1" stop-color="#454545"/>
</linearGradient>
<linearGradient id="paint12_linear_4647_1320" x1="179.439" y1="-18.2008" x2="183.388" y2="26.6048" gradientUnits="userSpaceOnUse">
<stop stop-color="#454545"/>
<stop offset="0.66" stop-color="#353535"/>
<stop offset="1" stop-color="#2B2B2B"/>
</linearGradient>
<linearGradient id="paint13_linear_4647_1320" x1="405.471" y1="-34.0236" x2="585.934" y2="196.081" gradientUnits="userSpaceOnUse">
<stop stop-color="#454545"/>
<stop offset="0.66" stop-color="#353535"/>
<stop offset="1" stop-color="#2B2B2B"/>
</linearGradient>
<linearGradient id="paint14_linear_4647_1320" x1="274.753" y1="68.4943" x2="403.851" y2="233.105" gradientUnits="userSpaceOnUse">
<stop stop-color="#2B2B2B"/>
<stop offset="1" stop-color="#1A1A1A"/>
</linearGradient>
<linearGradient id="paint15_linear_4647_1320" x1="25.6152" y1="27.1691" x2="37.5653" y2="162.704" gradientUnits="userSpaceOnUse">
<stop stop-color="#1A1A1A"/>
<stop offset="1" stop-color="#2B2B2B"/>
</linearGradient>
<linearGradient id="paint16_linear_4647_1320" x1="22.207" y1="-11.5444" x2="38.1065" y2="168.796" gradientUnits="userSpaceOnUse">
<stop stop-color="#1A1A1A"/>
<stop offset="1" stop-color="#2B2B2B"/>
</linearGradient>
<linearGradient id="paint17_linear_4647_1320" x1="209.28" y1="9.71522" x2="215.512" y2="80.4093" gradientUnits="userSpaceOnUse">
<stop stop-color="#1A1A1A"/>
<stop offset="1" stop-color="#2B2B2B"/>
</linearGradient>
<linearGradient id="paint18_linear_4647_1320" x1="20.734" y1="74.2615" x2="43.343" y2="330.697" gradientUnits="userSpaceOnUse">
<stop stop-color="#0F0F0F"/>
<stop offset="0.18" stop-color="#171717"/>
<stop offset="0.54" stop-color="#202020"/>
<stop offset="1" stop-color="#242424"/>
</linearGradient>
<linearGradient id="paint19_linear_4647_1320" x1="554.377" y1="18.1296" x2="480.887" y2="96.8414" gradientUnits="userSpaceOnUse">
<stop stop-color="#2B2B2B"/>
<stop offset="1" stop-color="#1A1A1A"/>
</linearGradient>
<linearGradient id="paint20_linear_4647_1320" x1="720.391" y1="-5.39112" x2="605.365" y2="117.802" gradientUnits="userSpaceOnUse">
<stop stop-color="#2B2B2B"/>
<stop offset="0.13" stop-color="#252525"/>
<stop offset="0.47" stop-color="#1C1C1C"/>
<stop offset="1" stop-color="#1A1A1A"/>
</linearGradient>
<linearGradient id="paint21_linear_4647_1320" x1="605.552" y1="27.8855" x2="383.32" y2="27.8855" gradientUnits="userSpaceOnUse">
<stop stop-color="#454545"/>
<stop offset="0.66" stop-color="#353535"/>
<stop offset="1" stop-color="#2B2B2B"/>
</linearGradient>
<linearGradient id="paint22_linear_4647_1320" x1="721.564" y1="27.8855" x2="621.927" y2="27.8855" gradientUnits="userSpaceOnUse">
<stop stop-color="#454545"/>
<stop offset="0.68" stop-color="#414141"/>
<stop offset="1" stop-color="#3D3D3D"/>
</linearGradient>
<linearGradient id="paint23_linear_4647_1320" x1="972.643" y1="161.053" x2="831.452" y2="161.053" gradientUnits="userSpaceOnUse">
<stop stop-color="#1A1A1A"/>
<stop offset="1" stop-color="#2B2B2B"/>
</linearGradient>
<linearGradient id="paint24_linear_4647_1320" x1="935.563" y1="80.9178" x2="828.216" y2="80.9178" gradientUnits="userSpaceOnUse">
<stop stop-color="#454545"/>
<stop offset="0.66" stop-color="#353535"/>
<stop offset="1" stop-color="#2B2B2B"/>
</linearGradient>
<linearGradient id="paint25_linear_4647_1320" x1="1058.94" y1="161.053" x2="948.495" y2="161.053" gradientUnits="userSpaceOnUse">
<stop stop-color="#242424"/>
<stop offset="1" stop-color="#0F0F0F"/>
</linearGradient>
<linearGradient id="paint26_linear_4647_1320" x1="1058.4" y1="84.9675" x2="923.586" y2="84.9675" gradientUnits="userSpaceOnUse">
<stop stop-color="#454545"/>
<stop offset="0.66" stop-color="#353535"/>
<stop offset="1" stop-color="#2B2B2B"/>
</linearGradient>
<linearGradient id="paint27_linear_4647_1320" x1="992.462" y1="47.0365" x2="917.836" y2="47.0365" gradientUnits="userSpaceOnUse">
<stop stop-color="#1A1A1A"/>
<stop offset="1" stop-color="#2B2B2B"/>
</linearGradient>
<linearGradient id="paint28_linear_4647_1320" x1="1046.94" y1="17.0321" x2="922.591" y2="17.0321" gradientUnits="userSpaceOnUse">
<stop stop-color="#454545"/>
<stop offset="0.66" stop-color="#353535"/>
<stop offset="1" stop-color="#2B2B2B"/>
</linearGradient>
<linearGradient id="paint29_linear_4647_1320" x1="1048.52" y1="47.0365" x2="995.581" y2="47.0365" gradientUnits="userSpaceOnUse">
<stop stop-color="#1A1A1A"/>
<stop offset="1" stop-color="#2B2B2B"/>
</linearGradient>
<linearGradient id="paint30_linear_4647_1320" x1="1137.11" y1="42.4837" x2="1057.32" y2="42.4837" gradientUnits="userSpaceOnUse">
<stop stop-color="#454545"/>
<stop offset="0.66" stop-color="#353535"/>
<stop offset="1" stop-color="#2B2B2B"/>
</linearGradient>
<linearGradient id="paint31_linear_4647_1320" x1="1146.65" y1="108.905" x2="1081.93" y2="108.905" gradientUnits="userSpaceOnUse">
<stop stop-color="#1A1A1A"/>
<stop offset="1" stop-color="#2B2B2B"/>
</linearGradient>
<linearGradient id="paint32_linear_4647_1320" x1="1074.12" y1="47.0365" x2="1001.1" y2="47.0365" gradientUnits="userSpaceOnUse">
<stop stop-color="#454545"/>
<stop offset="0.66" stop-color="#353535"/>
<stop offset="1" stop-color="#2B2B2B"/>
</linearGradient>
<linearGradient id="paint33_linear_4647_1320" x1="1074.12" y1="127.456" x2="1001.1" y2="127.456" gradientUnits="userSpaceOnUse">
<stop stop-color="#2B2B2B"/>
<stop offset="1" stop-color="#1A1A1A"/>
</linearGradient>
<linearGradient id="paint34_linear_4647_1320" x1="1146.37" y1="151.389" x2="1068.8" y2="151.389" gradientUnits="userSpaceOnUse">
<stop stop-color="#242424"/>
<stop offset="1" stop-color="#0F0F0F"/>
</linearGradient>
<linearGradient id="paint35_linear_4647_1320" x1="1411.52" y1="81.1922" x2="1425.76" y2="242.732" gradientUnits="userSpaceOnUse">
<stop stop-color="#454545"/>
<stop offset="0.66" stop-color="#353535"/>
<stop offset="1" stop-color="#2B2B2B"/>
</linearGradient>
<linearGradient id="paint36_linear_4647_1320" x1="1490.56" y1="73.1944" x2="1506.51" y2="254.089" gradientUnits="userSpaceOnUse">
<stop stop-color="#2B2B2B"/>
<stop offset="0.1" stop-color="#272727"/>
<stop offset="0.5" stop-color="#1D1D1D"/>
<stop offset="1" stop-color="#1A1A1A"/>
</linearGradient>
<linearGradient id="paint37_linear_4647_1320" x1="1463.82" y1="155.073" x2="1362.09" y2="155.073" gradientUnits="userSpaceOnUse">
<stop stop-color="#1A1A1A"/>
<stop offset="1" stop-color="#2B2B2B"/>
</linearGradient>
<linearGradient id="paint38_linear_4647_1320" x1="1462.23" y1="125.526" x2="1288.51" y2="125.526" gradientUnits="userSpaceOnUse">
<stop stop-color="#454545"/>
<stop offset="0.53" stop-color="#343434"/>
<stop offset="1" stop-color="#2B2B2B"/>
</linearGradient>
<linearGradient id="paint39_linear_4647_1320" x1="1509.62" y1="152.41" x2="1558.96" y2="114.989" gradientUnits="userSpaceOnUse">
<stop stop-color="#1A1A1A"/>
<stop offset="1" stop-color="#2B2B2B"/>
</linearGradient>
<linearGradient id="paint40_linear_4647_1320" x1="1512.89" y1="95.8412" x2="1611.2" y2="21.2935" gradientUnits="userSpaceOnUse">
<stop stop-color="#454545"/>
<stop offset="0.66" stop-color="#353535"/>
<stop offset="1" stop-color="#2B2B2B"/>
</linearGradient>
<linearGradient id="paint41_linear_4647_1320" x1="1535.89" y1="187.049" x2="1585.23" y2="149.632" gradientUnits="userSpaceOnUse">
<stop stop-color="#151515"/>
<stop offset="0.52" stop-color="#181818"/>
<stop offset="0.98" stop-color="#232323"/>
<stop offset="1" stop-color="#242424"/>
</linearGradient>
<linearGradient id="paint42_linear_4647_1320" x1="1570.49" y1="122.721" x2="1645.9" y2="65.5325" gradientUnits="userSpaceOnUse">
<stop stop-color="#1A1A1A"/>
<stop offset="1" stop-color="#2B2B2B"/>
</linearGradient>
<linearGradient id="paint43_linear_4647_1320" x1="1458.48" y1="49.7905" x2="1568.78" y2="-33.8535" gradientUnits="userSpaceOnUse">
<stop stop-color="#242424"/>
<stop offset="0.62" stop-color="#1C1C1C"/>
<stop offset="1" stop-color="#151515"/>
</linearGradient>
<linearGradient id="paint44_linear_4647_1320" x1="1280.01" y1="67.8693" x2="1508.54" y2="-105.442" gradientUnits="userSpaceOnUse">
<stop stop-color="#454545"/>
<stop offset="0.66" stop-color="#353535"/>
<stop offset="1" stop-color="#2B2B2B"/>
</linearGradient>
<linearGradient id="paint45_linear_4647_1320" x1="1251.52" y1="81.1617" x2="1381.75" y2="-17.5971" gradientUnits="userSpaceOnUse">
<stop stop-color="#242424"/>
<stop offset="0.02" stop-color="#232323"/>
<stop offset="0.48" stop-color="#181818"/>
<stop offset="1" stop-color="#151515"/>
</linearGradient>
<clipPath id="clip0_4647_1320">
<rect width="1600" height="120" fill="white"/>
</clipPath>
<clipPath id="clip1_4647_1320">
<rect width="1600" height="686" fill="white"/>
</clipPath>
</defs>
</svg>
