<svg width="2800" height="664" viewBox="0 0 2800 664" fill="none" xmlns="http://www.w3.org/2000/svg">
<g clip-path="url(#clip0_4650_2513)">
<rect width="2800" height="664" fill="black"/>
<g opacity="0.4" clip-path="url(#clip1_4650_2513)">
<path d="M1306.91 167.359L1100.77 283.592L1279.93 0L1306.91 167.359Z" fill="url(#paint0_linear_4650_2513)"/>
<path d="M1593.17 0L1306.91 167.359L1279.93 0H1593.17Z" fill="url(#paint1_linear_4650_2513)"/>
<path d="M1430.92 283.085L1306.91 167.359L1593.17 0L1430.92 283.085Z" fill="url(#paint2_linear_4650_2513)"/>
<path d="M1430.92 283.085L1306.91 167.359L1100.77 283.592L1430.92 283.085Z" fill="url(#paint3_linear_4650_2513)"/>
<path d="M610.849 755.511L401.386 925.625L452.274 411.345L610.849 755.511Z" fill="url(#paint4_linear_4650_2513)"/>
<path d="M769.415 526.609L610.849 755.511L452.275 411.345L769.415 526.609Z" fill="url(#paint5_linear_4650_2513)"/>
<path d="M800.355 954.584L610.849 755.511L769.415 526.609L800.355 954.584Z" fill="url(#paint6_linear_4650_2513)"/>
<path d="M82.104 796.051L269.841 916.097L0 523.676L82.104 796.051Z" fill="url(#paint7_linear_4650_2513)"/>
<path d="M82.104 796.051L0 916.097V523.676L82.104 796.051Z" fill="url(#paint8_linear_4650_2513)"/>
<path d="M1337.18 487.056L1352.72 337.349L1430.92 283.085L1337.18 487.056Z" fill="url(#paint9_linear_4650_2513)"/>
<path d="M1352.85 337.713L1313.31 283.085L1337.18 487.056L1352.85 337.713Z" fill="url(#paint10_linear_4650_2513)"/>
<path d="M1430.92 283.085L1352.85 337.713L1313.31 283.085H1430.92Z" fill="url(#paint11_linear_4650_2513)"/>
<path d="M782.84 714.073L808.822 580.872L902.789 568.855L782.84 714.073Z" fill="url(#paint12_linear_4650_2513)"/>
<path d="M808.964 581.228L769.414 526.609L782.84 714.074L808.964 581.228Z" fill="url(#paint13_linear_4650_2513)"/>
<path d="M902.789 568.856L808.964 581.228L769.414 526.609L902.789 568.856Z" fill="url(#paint14_linear_4650_2513)"/>
<path d="M452.274 411.345L412.955 195.108L108.771 147.351L452.274 411.345Z" fill="url(#paint15_linear_4650_2513)"/>
<path d="M633.427 0L412.955 195.108L452.274 411.345L633.427 0Z" fill="url(#paint16_linear_4650_2513)"/>
<path d="M412.955 195.108L108.771 147.351L633.427 0L412.955 195.108Z" fill="url(#paint17_linear_4650_2513)"/>
<path d="M1893.5 655.134L1992.34 954.583L1559.07 720.961L1893.5 655.134Z" fill="url(#paint18_linear_4650_2513)"/>
<path d="M2008.41 381.008L1893.5 655.134L1559.07 720.961L2008.41 381.008Z" fill="url(#paint19_linear_4650_2513)"/>
<path d="M2008.41 381.008L1893.5 655.134L1992.34 954.583L2008.41 381.008Z" fill="url(#paint20_linear_4650_2513)"/>
<path d="M2008.44 381.009L2171.25 140.649L1992.34 0L2008.44 381.009Z" fill="url(#paint21_linear_4650_2513)"/>
<path d="M2171.25 140.649L2564.73 148.631L1992.34 0L2171.25 140.649Z" fill="url(#paint22_linear_4650_2513)"/>
<path d="M2008.44 381.008L2171.25 140.649L2564.73 148.631L2008.44 381.008Z" fill="url(#paint23_linear_4650_2513)"/>
<path d="M964.429 837.959L983.533 691.647L902.789 568.855L964.429 837.959Z" fill="url(#paint24_linear_4650_2513)"/>
<path d="M1128.51 720.961L902.789 568.855L983.533 691.647L1128.51 720.961Z" fill="url(#paint25_linear_4650_2513)"/>
<path d="M0 523.676L209.543 474.967L108.77 147.351L0 523.676Z" fill="url(#paint26_linear_4650_2513)"/>
<path d="M209.446 474.968L452.274 411.345L108.771 147.352L209.446 474.968Z" fill="url(#paint27_linear_4650_2513)"/>
<path d="M0 523.675L209.445 474.967L269.841 916.097L0 523.675Z" fill="url(#paint28_linear_4650_2513)"/>
<path d="M209.445 474.967L452.274 411.344L269.841 916.097L209.445 474.967Z" fill="url(#paint29_linear_4650_2513)"/>
<path d="M108.77 54.4857L0 0H633.427L108.77 54.4857Z" fill="url(#paint30_linear_4650_2513)"/>
<path d="M452.275 411.344L375.422 734.179L401.386 925.625L452.275 411.344Z" fill="url(#paint31_linear_4650_2513)"/>
<path d="M320.455 776.567L375.422 734.179L452.275 411.344L320.455 776.567Z" fill="url(#paint32_linear_4650_2513)"/>
<path d="M902.789 568.855L874.079 755.51L782.84 714.073L902.789 568.855Z" fill="url(#paint33_linear_4650_2513)"/>
<path d="M902.789 568.855L874.079 755.51L964.429 837.959L902.789 568.855Z" fill="url(#paint34_linear_4650_2513)"/>
<path d="M769.414 526.609L865.469 283.085L1100.77 283.592L769.414 526.609Z" fill="url(#paint35_linear_4650_2513)"/>
<path d="M633.428 0L865.469 283.085L1100.77 283.592L633.428 0Z" fill="url(#paint36_linear_4650_2513)"/>
<path d="M769.413 526.609L452.273 411.345L865.468 283.085L769.413 526.609Z" fill="url(#paint37_linear_4650_2513)"/>
<path d="M633.426 0L452.273 411.345L865.468 283.085L633.426 0Z" fill="url(#paint38_linear_4650_2513)"/>
<path d="M108.77 147.351L0 257.914L108.77 54.4856V147.351Z" fill="url(#paint39_linear_4650_2513)"/>
<path d="M0 0L108.77 54.4857L0 257.914V0Z" fill="url(#paint40_linear_4650_2513)"/>
<path d="M633.427 0L108.771 147.351V54.4857L633.427 0Z" fill="url(#paint41_linear_4650_2513)"/>
<path d="M108.77 147.351L0 523.676V257.914L108.77 147.351Z" fill="url(#paint42_linear_4650_2513)"/>
<path d="M1128.51 720.962H1559.07L1372.11 581.228L1128.51 720.962Z" fill="url(#paint43_linear_4650_2513)"/>
<path d="M1337.18 487.056L1128.51 720.962L1372.11 581.228L1337.18 487.056Z" fill="url(#paint44_linear_4650_2513)"/>
<path d="M1559.07 720.962L1372.11 581.228L1337.18 487.056L1559.07 720.962Z" fill="url(#paint45_linear_4650_2513)"/>
<path d="M769.414 526.609L902.789 568.855L1075.55 423.913L769.414 526.609Z" fill="url(#paint46_linear_4650_2513)"/>
<path d="M1100.77 283.592L1075.55 423.913L769.414 526.609L1100.77 283.592Z" fill="url(#paint47_linear_4650_2513)"/>
<path d="M1128.51 720.962L1075.55 423.913L902.789 568.855L1128.51 720.962Z" fill="url(#paint48_linear_4650_2513)"/>
<path d="M1337.18 487.056L1075.55 423.913L1128.51 720.962L1337.18 487.056Z" fill="url(#paint49_linear_4650_2513)"/>
<path d="M1100.77 283.592L1337.18 487.055L1075.55 423.912L1100.77 283.592Z" fill="url(#paint50_linear_4650_2513)"/>
<path d="M1313.31 283.085L1261.86 350.993L1100.77 283.592L1313.31 283.085Z" fill="url(#paint51_linear_4650_2513)"/>
<path d="M1337.18 487.056L1261.86 350.993L1313.31 283.085L1337.18 487.056Z" fill="url(#paint52_linear_4650_2513)"/>
<path d="M1100.77 283.592L1337.18 487.055L1261.86 350.992L1100.77 283.592Z" fill="url(#paint53_linear_4650_2513)"/>
<path d="M1100.77 283.592L1046.46 97.5587L633.428 0L1100.77 283.592Z" fill="url(#paint54_linear_4650_2513)"/>
<path d="M1279.92 0L1100.77 283.592L1046.46 97.5587L1279.92 0Z" fill="url(#paint55_linear_4650_2513)"/>
<path d="M633.428 0L1046.46 97.5587L1058.35 39.2243L1067.97 0H633.428Z" fill="url(#paint56_linear_4650_2513)"/>
<path d="M1067.96 0L1058.35 39.2243L1046.46 97.5587L1279.92 0H1067.96Z" fill="url(#paint57_linear_4650_2513)"/>
<path d="M1559.07 720.962L1600.28 456.737L1337.18 487.055L1559.07 720.962Z" fill="url(#paint58_linear_4650_2513)"/>
<path d="M1430.92 283.085L1600.28 456.737L1337.18 487.056L1430.92 283.085Z" fill="url(#paint59_linear_4650_2513)"/>
<path d="M1707 357.783L1430.92 283.085L1600.28 456.737L1707 357.783Z" fill="url(#paint60_linear_4650_2513)"/>
<path d="M1831.8 514.627L1600.28 456.737L1559.07 720.962L1831.8 514.627Z" fill="url(#paint61_linear_4650_2513)"/>
<path d="M1707 357.783L1831.8 514.627L1600.28 456.737L1707 357.783Z" fill="url(#paint62_linear_4650_2513)"/>
<path d="M1831.8 514.627L1850.6 412.171L2008.44 381.009L1831.8 514.627Z" fill="url(#paint63_linear_4650_2513)"/>
<path d="M1707 357.783L1831.8 514.627L1850.6 412.171L1707 357.783Z" fill="url(#paint64_linear_4650_2513)"/>
<path d="M1856.77 297.271L1850.6 412.171L1707 357.783L1856.77 297.271Z" fill="url(#paint65_linear_4650_2513)"/>
<path d="M2008.44 381.008L1856.77 297.271L1850.6 412.171L2008.44 381.008Z" fill="url(#paint66_linear_4650_2513)"/>
<path d="M2003.97 539.852L2069.48 403.532L2008.41 381.009L2003.97 539.852Z" fill="url(#paint67_linear_4650_2513)"/>
<path d="M2225.05 290.525L2069.48 403.532L2003.97 539.852L2225.05 290.525Z" fill="url(#paint68_linear_4650_2513)"/>
<path d="M2008.41 381.008L2069.48 403.532L2225.05 290.525L2008.41 381.008Z" fill="url(#paint69_linear_4650_2513)"/>
<path d="M1707 357.783L1640.82 205.677L1430.92 283.086L1707 357.783Z" fill="url(#paint70_linear_4650_2513)"/>
<path d="M1593.17 0L1640.82 205.677L1430.92 283.085L1593.17 0Z" fill="url(#paint71_linear_4650_2513)"/>
<path d="M1856.77 297.271L1640.82 205.677L1707 357.783L1856.77 297.271Z" fill="url(#paint72_linear_4650_2513)"/>
<path d="M1593.17 0L1856.77 297.271L1640.82 205.677L1593.17 0Z" fill="url(#paint73_linear_4650_2513)"/>
<path d="M1732.8 59.5876L1593.17 0L1739.09 164.559L1732.8 59.5876Z" fill="url(#paint74_linear_4650_2513)"/>
<path d="M1836.32 0L1732.8 59.5876L1593.17 0H1836.32Z" fill="url(#paint75_linear_4650_2513)"/>
<path d="M1739.09 164.559L1836.32 0L1732.8 59.5876L1739.09 164.559Z" fill="url(#paint76_linear_4650_2513)"/>
<path d="M1881.88 148.631L1836.32 0H1992.34L1881.88 148.631Z" fill="url(#paint77_linear_4650_2513)"/>
<path d="M2008.44 381.009L1881.88 148.631L1992.34 0L2008.44 381.009Z" fill="url(#paint78_linear_4650_2513)"/>
<path d="M1739.09 164.559L1881.88 148.631L1836.32 0L1739.09 164.559Z" fill="url(#paint79_linear_4650_2513)"/>
<path d="M1856.77 297.271L1881.88 148.631L1739.09 164.559L1856.77 297.271Z" fill="url(#paint80_linear_4650_2513)"/>
<path d="M2008.44 381.008L1881.88 148.631L1856.77 297.271L2008.44 381.008Z" fill="url(#paint81_linear_4650_2513)"/>
<path d="M2396.65 394.475L2550.32 306.107L2564.73 148.632L2396.65 394.475Z" fill="url(#paint82_linear_4650_2513)"/>
<path d="M2703.99 395.052L2550.32 306.106L2564.73 148.631L2703.99 395.052Z" fill="url(#paint83_linear_4650_2513)"/>
<path d="M2396.65 393.888L2550.32 305.529L2703.99 394.474L2396.65 393.888Z" fill="url(#paint84_linear_4650_2513)"/>
<path d="M2445.35 954.584L2420.41 809.988L2564.73 593.956L2445.35 954.584Z" fill="url(#paint85_linear_4650_2513)"/>
<path d="M2183.14 703.407L2420.41 809.988L2564.73 593.956L2183.14 703.407Z" fill="url(#paint86_linear_4650_2513)"/>
<path d="M2183.14 703.407L2003.96 539.853L2249.9 497.677L2183.14 703.407Z" fill="url(#paint87_linear_4650_2513)"/>
<path d="M2225.05 290.525L2249.9 497.677L2003.97 539.852L2225.05 290.525Z" fill="url(#paint88_linear_4650_2513)"/>
<path d="M2396.65 393.888L2249.9 497.677L2225.05 290.525L2396.65 393.888Z" fill="url(#paint89_linear_4650_2513)"/>
<path d="M2564.73 593.956L2249.9 497.677L2183.14 703.407L2564.73 593.956Z" fill="url(#paint90_linear_4650_2513)"/>
<path d="M2396.65 393.888L2249.9 497.677L2564.73 593.956L2396.65 393.888Z" fill="url(#paint91_linear_4650_2513)"/>
<path d="M2365.8 290.525H2225.05L2396.65 393.888L2365.8 290.525Z" fill="url(#paint92_linear_4650_2513)"/>
<path d="M2564.73 148.631L2365.8 290.525L2396.65 393.888L2564.73 148.631Z" fill="url(#paint93_linear_4650_2513)"/>
<path d="M2225.05 290.525L2564.73 148.631L2365.8 290.525H2225.05Z" fill="url(#paint94_linear_4650_2513)"/>
<path d="M2564.73 593.956L2647.94 899.005L2445.35 954.584L2564.73 593.956Z" fill="url(#paint95_linear_4650_2513)"/>
<path d="M2799 856.074L2647.94 899.005L2564.73 593.956L2799 856.074Z" fill="url(#paint96_linear_4650_2513)"/>
<path d="M2003.97 539.853L2054.82 739.956L2183.14 703.407L2003.97 539.853Z" fill="url(#paint97_linear_4650_2513)"/>
<path d="M1992.34 954.584L2054.82 739.956L2003.97 539.853L1992.34 954.584Z" fill="url(#paint98_linear_4650_2513)"/>
<path d="M2703.99 394.475L2723.47 190.505L2564.73 148.632L2703.99 394.475Z" fill="url(#paint99_linear_4650_2513)"/>
<path d="M2799 0L2723.47 190.504L2564.73 148.631L2799 0Z" fill="url(#paint100_linear_4650_2513)"/>
<path d="M2799 350.992L2703.99 394.474L2723.47 190.504L2799 350.992Z" fill="url(#paint101_linear_4650_2513)"/>
<path d="M2799 0L2723.47 190.504L2799 350.993V0Z" fill="url(#paint102_linear_4650_2513)"/>
<path d="M2454.87 59.5876L2564.73 148.631L2799 0L2454.87 59.5876Z" fill="url(#paint103_linear_4650_2513)"/>
<path d="M1992.34 0L2454.87 59.5876L2799 0H1992.34Z" fill="url(#paint104_linear_4650_2513)"/>
<path d="M2564.73 148.631L1992.34 0L2454.87 59.5876L2564.73 148.631Z" fill="url(#paint105_linear_4650_2513)"/>
<path d="M2506.57 449.884L2550.32 394.474L2396.65 393.888L2506.57 449.884Z" fill="url(#paint106_linear_4650_2513)"/>
<path d="M2536.39 560.225L2506.57 449.884L2396.65 393.888L2536.39 560.225Z" fill="url(#paint107_linear_4650_2513)"/>
<path d="M2550.32 394.474L2536.39 560.225L2506.57 449.884L2550.32 394.474Z" fill="url(#paint108_linear_4650_2513)"/>
<path d="M2651.94 509.49L2703.99 394.474H2550.32L2651.94 509.49Z" fill="url(#paint109_linear_4650_2513)"/>
<path d="M2564.73 593.956L2651.94 509.49L2535.72 557.745L2564.73 593.956Z" fill="url(#paint110_linear_4650_2513)"/>
<path d="M2550.32 394.474L2535.72 557.745L2651.94 509.49L2550.32 394.474Z" fill="url(#paint111_linear_4650_2513)"/>
<path d="M2564.73 593.956L2742.03 584.49L2651.94 509.49L2564.73 593.956Z" fill="url(#paint112_linear_4650_2513)"/>
<path d="M2703.99 394.474L2651.94 509.49L2742.03 584.49L2703.99 394.474Z" fill="url(#paint113_linear_4650_2513)"/>
<path d="M2714.87 663.623L2742.03 584.49L2564.73 593.956L2714.87 663.623Z" fill="url(#paint114_linear_4650_2513)"/>
<path d="M2799 856.074L2714.87 663.623L2564.73 593.956L2799 856.074Z" fill="url(#paint115_linear_4650_2513)"/>
<path d="M2799 681.346V856.074L2714.87 663.623L2742.03 584.49L2799 681.346Z" fill="url(#paint116_linear_4650_2513)"/>
<path d="M2742.03 584.49L2799 544.333V681.347L2742.03 584.49Z" fill="url(#paint117_linear_4650_2513)"/>
<path d="M2742.03 584.49L2799 432.135V544.333L2742.03 584.49Z" fill="url(#paint118_linear_4650_2513)"/>
<path d="M2746.17 451.982L2703.99 394.475L2799 350.993L2746.17 451.982Z" fill="url(#paint119_linear_4650_2513)"/>
<path d="M2742.03 584.49L2746.16 451.982L2799 432.135L2742.03 584.49Z" fill="url(#paint120_linear_4650_2513)"/>
<path d="M2799 350.993L2746.17 451.982L2799 432.135V350.993Z" fill="url(#paint121_linear_4650_2513)"/>
<path d="M2703.99 394.474L2742.03 584.49L2746.17 451.982L2703.99 394.474Z" fill="url(#paint122_linear_4650_2513)"/>
</g>
</g>
<defs>
<linearGradient id="paint0_linear_4650_2513" x1="1100.77" y1="141.796" x2="1306.91" y2="141.796" gradientUnits="userSpaceOnUse">
<stop stop-color="#1A1A1A"/>
<stop offset="1" stop-color="#2B2B2B"/>
</linearGradient>
<linearGradient id="paint1_linear_4650_2513" x1="1279.93" y1="83.6839" x2="1593.17" y2="83.6839" gradientUnits="userSpaceOnUse">
<stop stop-color="#454545"/>
<stop offset="0.66" stop-color="#353535"/>
<stop offset="1" stop-color="#2B2B2B"/>
</linearGradient>
<linearGradient id="paint2_linear_4650_2513" x1="1306.91" y1="141.547" x2="1593.17" y2="141.547" gradientUnits="userSpaceOnUse">
<stop stop-color="#1A1A1A"/>
<stop offset="1" stop-color="#2B2B2B"/>
</linearGradient>
<linearGradient id="paint3_linear_4650_2513" x1="1100.77" y1="225.471" x2="1430.92" y2="225.471" gradientUnits="userSpaceOnUse">
<stop stop-color="#242424"/>
<stop offset="1" stop-color="#161616"/>
</linearGradient>
<linearGradient id="paint4_linear_4650_2513" x1="401.386" y1="668.485" x2="610.849" y2="668.485" gradientUnits="userSpaceOnUse">
<stop stop-color="#1A1A1A"/>
<stop offset="1" stop-color="#2B2B2B"/>
</linearGradient>
<linearGradient id="paint5_linear_4650_2513" x1="452.275" y1="583.432" x2="769.415" y2="583.432" gradientUnits="userSpaceOnUse">
<stop stop-color="#454545"/>
<stop offset="0.66" stop-color="#353535"/>
<stop offset="1" stop-color="#2B2B2B"/>
</linearGradient>
<linearGradient id="paint6_linear_4650_2513" x1="610.849" y1="740.596" x2="800.355" y2="740.596" gradientUnits="userSpaceOnUse">
<stop stop-color="#1A1A1A"/>
<stop offset="1" stop-color="#2B2B2B"/>
</linearGradient>
<linearGradient id="paint7_linear_4650_2513" x1="-45.9151" y1="657.922" x2="315.862" y2="781.749" gradientUnits="userSpaceOnUse">
<stop stop-color="#2B2B2B"/>
<stop offset="1" stop-color="#1A1A1A"/>
</linearGradient>
<linearGradient id="paint8_linear_4650_2513" x1="-60.0731" y1="699.286" x2="96.8888" y2="753.01" gradientUnits="userSpaceOnUse">
<stop stop-color="#1A1A1A"/>
<stop offset="1" stop-color="#2B2B2B"/>
</linearGradient>
<linearGradient id="paint9_linear_4650_2513" x1="1308.9" y1="414.331" x2="1459.26" y2="355.784" gradientUnits="userSpaceOnUse">
<stop stop-color="#242424"/>
<stop offset="1" stop-color="#0F0F0F"/>
</linearGradient>
<linearGradient id="paint10_linear_4650_2513" x1="1301.15" y1="394.437" x2="1365.26" y2="369.476" gradientUnits="userSpaceOnUse">
<stop stop-color="#1A1A1A"/>
<stop offset="1" stop-color="#2B2B2B"/>
</linearGradient>
<linearGradient id="paint11_linear_4650_2513" x1="1325.17" y1="313.463" x2="1427.3" y2="273.697" gradientUnits="userSpaceOnUse">
<stop stop-color="#2B2B2B"/>
<stop offset="0.64" stop-color="#292929"/>
<stop offset="0.87" stop-color="#222222"/>
<stop offset="1" stop-color="#1A1A1A"/>
</linearGradient>
<linearGradient id="paint12_linear_4650_2513" x1="762.053" y1="660.633" x2="915.317" y2="600.957" gradientUnits="userSpaceOnUse">
<stop stop-color="#242424"/>
<stop offset="1" stop-color="#0F0F0F"/>
</linearGradient>
<linearGradient id="paint13_linear_4650_2513" x1="750.286" y1="630.412" x2="817.888" y2="604.09" gradientUnits="userSpaceOnUse">
<stop stop-color="#1A1A1A"/>
<stop offset="1" stop-color="#2B2B2B"/>
</linearGradient>
<linearGradient id="paint14_linear_4650_2513" x1="785.36" y1="567.498" x2="886.896" y2="527.964" gradientUnits="userSpaceOnUse">
<stop stop-color="#2B2B2B"/>
<stop offset="1" stop-color="#1A1A1A"/>
</linearGradient>
<linearGradient id="paint15_linear_4650_2513" x1="307.535" y1="241.257" x2="415.31" y2="402.88" gradientUnits="userSpaceOnUse">
<stop stop-color="#242424"/>
<stop offset="1" stop-color="#0F0F0F"/>
</linearGradient>
<linearGradient id="paint16_linear_4650_2513" x1="525.75" y1="200.219" x2="422.199" y2="167.208" gradientUnits="userSpaceOnUse">
<stop stop-color="#1A1A1A"/>
<stop offset="1" stop-color="#2B2B2B"/>
</linearGradient>
<linearGradient id="paint17_linear_4650_2513" x1="108.771" y1="97.5587" x2="633.427" y2="97.5587" gradientUnits="userSpaceOnUse">
<stop stop-color="#454545"/>
<stop offset="0.66" stop-color="#353535"/>
<stop offset="1" stop-color="#2B2B2B"/>
</linearGradient>
<linearGradient id="paint18_linear_4650_2513" x1="1766.47" y1="859.848" x2="1858.5" y2="640.454" gradientUnits="userSpaceOnUse">
<stop stop-color="#1A1A1A"/>
<stop offset="1" stop-color="#2B2B2B"/>
</linearGradient>
<linearGradient id="paint19_linear_4650_2513" x1="1689.57" y1="775.696" x2="1878.05" y2="326.336" gradientUnits="userSpaceOnUse">
<stop stop-color="#454545"/>
<stop offset="0.66" stop-color="#353535"/>
<stop offset="1" stop-color="#2B2B2B"/>
</linearGradient>
<linearGradient id="paint20_linear_4650_2513" x1="1896.95" y1="914.579" x2="2103.95" y2="421.09" gradientUnits="userSpaceOnUse">
<stop stop-color="#242424"/>
<stop offset="1" stop-color="#0F0F0F"/>
</linearGradient>
<linearGradient id="paint21_linear_4650_2513" x1="1992.34" y1="190.504" x2="2171.25" y2="190.504" gradientUnits="userSpaceOnUse">
<stop stop-color="#1A1A1A"/>
<stop offset="1" stop-color="#2B2B2B"/>
</linearGradient>
<linearGradient id="paint22_linear_4650_2513" x1="2277.91" y1="131.859" x2="2279.22" y2="10.3372" gradientUnits="userSpaceOnUse">
<stop stop-color="#454545"/>
<stop offset="0.66" stop-color="#353535"/>
<stop offset="1" stop-color="#2B2B2B"/>
</linearGradient>
<linearGradient id="paint23_linear_4650_2513" x1="2193.96" y1="135.494" x2="2292.27" y2="272.676" gradientUnits="userSpaceOnUse">
<stop stop-color="#242424"/>
<stop offset="1" stop-color="#0F0F0F"/>
</linearGradient>
<linearGradient id="paint24_linear_4650_2513" x1="856.649" y1="605.077" x2="1010.8" y2="801.615" gradientUnits="userSpaceOnUse">
<stop stop-color="#1A1A1A"/>
<stop offset="1" stop-color="#2B2B2B"/>
</linearGradient>
<linearGradient id="paint25_linear_4650_2513" x1="931.049" y1="546.723" x2="1090.87" y2="750.491" gradientUnits="userSpaceOnUse">
<stop stop-color="#454545"/>
<stop offset="0.66" stop-color="#353535"/>
<stop offset="1" stop-color="#2B2B2B"/>
</linearGradient>
<linearGradient id="paint26_linear_4650_2513" x1="-11.0357" y1="514.441" x2="219.05" y2="239.734" gradientUnits="userSpaceOnUse">
<stop stop-color="#1A1A1A"/>
<stop offset="1" stop-color="#2B2B2B"/>
</linearGradient>
<linearGradient id="paint27_linear_4650_2513" x1="154.945" y1="429.338" x2="286.382" y2="272.41" gradientUnits="userSpaceOnUse">
<stop stop-color="#2B2B2B"/>
<stop offset="0.34" stop-color="#353535"/>
<stop offset="1" stop-color="#454545"/>
</linearGradient>
<linearGradient id="paint28_linear_4650_2513" x1="93.9647" y1="768.788" x2="286.199" y2="539.273" gradientUnits="userSpaceOnUse">
<stop stop-color="#242424"/>
<stop offset="1" stop-color="#0F0F0F"/>
</linearGradient>
<linearGradient id="paint29_linear_4650_2513" x1="143.542" y1="810.312" x2="467.214" y2="423.869" gradientUnits="userSpaceOnUse">
<stop stop-color="#161616"/>
<stop offset="0.46" stop-color="#1F1F1F"/>
<stop offset="1" stop-color="#242424"/>
</linearGradient>
<linearGradient id="paint30_linear_4650_2513" x1="313.906" y1="-31.8381" x2="320.814" y2="46.5391" gradientUnits="userSpaceOnUse">
<stop stop-color="#454545"/>
<stop offset="0.66" stop-color="#353535"/>
<stop offset="1" stop-color="#2B2B2B"/>
</linearGradient>
<linearGradient id="paint31_linear_4650_2513" x1="375.422" y1="668.485" x2="452.275" y2="668.485" gradientUnits="userSpaceOnUse">
<stop stop-color="#1A1A1A"/>
<stop offset="1" stop-color="#2B2B2B"/>
</linearGradient>
<linearGradient id="paint32_linear_4650_2513" x1="320.455" y1="593.956" x2="452.275" y2="593.956" gradientUnits="userSpaceOnUse">
<stop stop-color="#2B2B2B"/>
<stop offset="1" stop-color="#1A1A1A"/>
</linearGradient>
<linearGradient id="paint33_linear_4650_2513" x1="830.397" y1="625.625" x2="910.104" y2="727.258" gradientUnits="userSpaceOnUse">
<stop stop-color="#454545"/>
<stop offset="0.66" stop-color="#353535"/>
<stop offset="1" stop-color="#2B2B2B"/>
</linearGradient>
<linearGradient id="paint34_linear_4650_2513" x1="848.595" y1="611.359" x2="1002.75" y2="807.916" gradientUnits="userSpaceOnUse">
<stop stop-color="#2B2B2B"/>
<stop offset="1" stop-color="#1A1A1A"/>
</linearGradient>
<linearGradient id="paint35_linear_4650_2513" x1="849.368" y1="295.716" x2="939.218" y2="410.287" gradientUnits="userSpaceOnUse">
<stop stop-color="#2B2B2B"/>
<stop offset="1" stop-color="#1A1A1A"/>
</linearGradient>
<linearGradient id="paint36_linear_4650_2513" x1="709.321" y1="-59.5165" x2="1025" y2="343.017" gradientUnits="userSpaceOnUse">
<stop stop-color="#454545"/>
<stop offset="0.66" stop-color="#353535"/>
<stop offset="1" stop-color="#2B2B2B"/>
</linearGradient>
<linearGradient id="paint37_linear_4650_2513" x1="816.996" y1="248.039" x2="587.592" y2="493.751" gradientUnits="userSpaceOnUse">
<stop stop-color="#242424"/>
<stop offset="1" stop-color="#161616"/>
</linearGradient>
<linearGradient id="paint38_linear_4650_2513" x1="480.645" y1="119.815" x2="706.47" y2="407.777" gradientUnits="userSpaceOnUse">
<stop stop-color="#2B2B2B"/>
<stop offset="1" stop-color="#1A1A1A"/>
</linearGradient>
<linearGradient id="paint39_linear_4650_2513" x1="44.8107" y1="47.526" x2="65.7133" y2="284.613" gradientUnits="userSpaceOnUse">
<stop stop-color="#1A1A1A"/>
<stop offset="1" stop-color="#2B2B2B"/>
</linearGradient>
<linearGradient id="paint40_linear_4650_2513" x1="38.8483" y1="-20.1944" x2="66.6593" y2="295.27" gradientUnits="userSpaceOnUse">
<stop stop-color="#1A1A1A"/>
<stop offset="1" stop-color="#2B2B2B"/>
</linearGradient>
<linearGradient id="paint41_linear_4650_2513" x1="366.11" y1="16.9945" x2="377.01" y2="140.658" gradientUnits="userSpaceOnUse">
<stop stop-color="#1A1A1A"/>
<stop offset="1" stop-color="#2B2B2B"/>
</linearGradient>
<linearGradient id="paint42_linear_4650_2513" x1="36.2715" y1="129.903" x2="75.8185" y2="578.479" gradientUnits="userSpaceOnUse">
<stop stop-color="#0F0F0F"/>
<stop offset="0.18" stop-color="#171717"/>
<stop offset="0.54" stop-color="#202020"/>
<stop offset="1" stop-color="#242424"/>
</linearGradient>
<linearGradient id="paint43_linear_4650_2513" x1="1440.04" y1="617.803" x2="1260.64" y2="809.961" gradientUnits="userSpaceOnUse">
<stop stop-color="#242424"/>
<stop offset="1" stop-color="#0F0F0F"/>
</linearGradient>
<linearGradient id="paint44_linear_4650_2513" x1="1365.75" y1="522.245" x2="1174.42" y2="727.18" gradientUnits="userSpaceOnUse">
<stop stop-color="#454545"/>
<stop offset="0.66" stop-color="#353535"/>
<stop offset="1" stop-color="#2B2B2B"/>
</linearGradient>
<linearGradient id="paint45_linear_4650_2513" x1="1454.18" y1="597.511" x2="1426.71" y2="626.941" gradientUnits="userSpaceOnUse">
<stop stop-color="#1A1A1A"/>
<stop offset="1" stop-color="#2B2B2B"/>
</linearGradient>
<linearGradient id="paint46_linear_4650_2513" x1="962.083" y1="488.629" x2="845.158" y2="449.177" gradientUnits="userSpaceOnUse">
<stop stop-color="#242424"/>
<stop offset="1" stop-color="#0F0F0F"/>
</linearGradient>
<linearGradient id="paint47_linear_4650_2513" x1="1095.6" y1="289.725" x2="849.085" y2="553.769" gradientUnits="userSpaceOnUse">
<stop stop-color="#454545"/>
<stop offset="0.25" stop-color="#363636"/>
<stop offset="0.55" stop-color="#2D2D2D"/>
<stop offset="1" stop-color="#2B2B2B"/>
</linearGradient>
<linearGradient id="paint48_linear_4650_2513" x1="1150.71" y1="500.157" x2="1014.04" y2="646.543" gradientUnits="userSpaceOnUse">
<stop stop-color="#242424"/>
<stop offset="1" stop-color="#151515"/>
</linearGradient>
<linearGradient id="paint49_linear_4650_2513" x1="1249.84" y1="414.029" x2="1058.5" y2="618.965" gradientUnits="userSpaceOnUse">
<stop stop-color="#1A1A1A"/>
<stop offset="0.59" stop-color="#1C1C1C"/>
<stop offset="0.86" stop-color="#232323"/>
<stop offset="1" stop-color="#2B2B2B"/>
</linearGradient>
<linearGradient id="paint50_linear_4650_2513" x1="1221.47" y1="382.635" x2="1140.65" y2="469.21" gradientUnits="userSpaceOnUse">
<stop stop-color="#1A1A1A"/>
<stop offset="1" stop-color="#2B2B2B"/>
</linearGradient>
<linearGradient id="paint51_linear_4650_2513" x1="1257.85" y1="235.266" x2="1169.07" y2="330.354" gradientUnits="userSpaceOnUse">
<stop stop-color="#454545"/>
<stop offset="0.25" stop-color="#363636"/>
<stop offset="0.55" stop-color="#2D2D2D"/>
<stop offset="1" stop-color="#2B2B2B"/>
</linearGradient>
<linearGradient id="paint52_linear_4650_2513" x1="1368.75" y1="338.451" x2="1287.66" y2="425.302" gradientUnits="userSpaceOnUse">
<stop stop-color="#242424"/>
<stop offset="1" stop-color="#161616"/>
</linearGradient>
<linearGradient id="paint53_linear_4650_2513" x1="1255.24" y1="346.45" x2="1218.2" y2="386.126" gradientUnits="userSpaceOnUse">
<stop stop-color="#242424"/>
<stop offset="1" stop-color="#161616"/>
</linearGradient>
<linearGradient id="paint54_linear_4650_2513" x1="969.814" y1="31.7137" x2="841.259" y2="169.41" gradientUnits="userSpaceOnUse">
<stop stop-color="#2B2B2B"/>
<stop offset="1" stop-color="#1A1A1A"/>
</linearGradient>
<linearGradient id="paint55_linear_4650_2513" x1="1260.23" y1="-9.43054" x2="1059.02" y2="206.079" gradientUnits="userSpaceOnUse">
<stop stop-color="#2B2B2B"/>
<stop offset="0.13" stop-color="#252525"/>
<stop offset="0.47" stop-color="#1C1C1C"/>
<stop offset="1" stop-color="#1A1A1A"/>
</linearGradient>
<linearGradient id="paint56_linear_4650_2513" x1="1059.34" y1="48.7793" x2="670.57" y2="48.7793" gradientUnits="userSpaceOnUse">
<stop stop-color="#454545"/>
<stop offset="0.66" stop-color="#353535"/>
<stop offset="1" stop-color="#2B2B2B"/>
</linearGradient>
<linearGradient id="paint57_linear_4650_2513" x1="1262.29" y1="48.7793" x2="1087.98" y2="48.7793" gradientUnits="userSpaceOnUse">
<stop stop-color="#454545"/>
<stop offset="0.68" stop-color="#414141"/>
<stop offset="1" stop-color="#3D3D3D"/>
</linearGradient>
<linearGradient id="paint58_linear_4650_2513" x1="1595.06" y1="588.854" x2="1359.66" y2="588.854" gradientUnits="userSpaceOnUse">
<stop stop-color="#242424"/>
<stop offset="1" stop-color="#0F0F0F"/>
</linearGradient>
<linearGradient id="paint59_linear_4650_2513" x1="1595.06" y1="385.071" x2="1359.66" y2="385.071" gradientUnits="userSpaceOnUse">
<stop stop-color="#1A1A1A"/>
<stop offset="1" stop-color="#2B2B2B"/>
</linearGradient>
<linearGradient id="paint60_linear_4650_2513" x1="1701.52" y1="369.916" x2="1454.52" y2="369.916" gradientUnits="userSpaceOnUse">
<stop stop-color="#454545"/>
<stop offset="0.66" stop-color="#353535"/>
<stop offset="1" stop-color="#2B2B2B"/>
</linearGradient>
<linearGradient id="paint61_linear_4650_2513" x1="1826.39" y1="588.854" x2="1582.38" y2="588.854" gradientUnits="userSpaceOnUse">
<stop stop-color="#242424"/>
<stop offset="1" stop-color="#0F0F0F"/>
</linearGradient>
<linearGradient id="paint62_linear_4650_2513" x1="1827.21" y1="436.205" x2="1620.07" y2="436.205" gradientUnits="userSpaceOnUse">
<stop stop-color="#1A1A1A"/>
<stop offset="1" stop-color="#2B2B2B"/>
</linearGradient>
<linearGradient id="paint63_linear_4650_2513" x1="2004.94" y1="447.813" x2="1846.9" y2="447.813" gradientUnits="userSpaceOnUse">
<stop stop-color="#242424"/>
<stop offset="1" stop-color="#0F0F0F"/>
</linearGradient>
<linearGradient id="paint64_linear_4650_2513" x1="1847.75" y1="436.205" x2="1719.27" y2="436.205" gradientUnits="userSpaceOnUse">
<stop stop-color="#1A1A1A"/>
<stop offset="1" stop-color="#2B2B2B"/>
</linearGradient>
<linearGradient id="paint65_linear_4650_2513" x1="1853.79" y1="354.717" x2="1719.79" y2="354.717" gradientUnits="userSpaceOnUse">
<stop stop-color="#454545"/>
<stop offset="0.66" stop-color="#353535"/>
<stop offset="1" stop-color="#2B2B2B"/>
</linearGradient>
<linearGradient id="paint66_linear_4650_2513" x1="2005.31" y1="354.717" x2="1864.09" y2="354.717" gradientUnits="userSpaceOnUse">
<stop stop-color="#1A1A1A"/>
<stop offset="1" stop-color="#2B2B2B"/>
</linearGradient>
<linearGradient id="paint67_linear_4650_2513" x1="2068.19" y1="460.435" x2="2009.57" y2="460.435" gradientUnits="userSpaceOnUse">
<stop stop-color="#242424"/>
<stop offset="1" stop-color="#0F0F0F"/>
</linearGradient>
<linearGradient id="paint68_linear_4650_2513" x1="2220.66" y1="415.193" x2="2022.86" y2="415.193" gradientUnits="userSpaceOnUse">
<stop stop-color="#242424"/>
<stop offset="1" stop-color="#0F0F0F"/>
</linearGradient>
<linearGradient id="paint69_linear_4650_2513" x1="2220.75" y1="347.028" x2="2026.93" y2="347.028" gradientUnits="userSpaceOnUse">
<stop stop-color="#1A1A1A"/>
<stop offset="1" stop-color="#2B2B2B"/>
</linearGradient>
<linearGradient id="paint70_linear_4650_2513" x1="1701.52" y1="281.726" x2="1454.52" y2="281.726" gradientUnits="userSpaceOnUse">
<stop stop-color="#1A1A1A"/>
<stop offset="1" stop-color="#2B2B2B"/>
</linearGradient>
<linearGradient id="paint71_linear_4650_2513" x1="1636.65" y1="141.547" x2="1448.86" y2="141.547" gradientUnits="userSpaceOnUse">
<stop stop-color="#454545"/>
<stop offset="0.66" stop-color="#353535"/>
<stop offset="1" stop-color="#2B2B2B"/>
</linearGradient>
<linearGradient id="paint72_linear_4650_2513" x1="1852.48" y1="281.726" x2="1659.27" y2="281.726" gradientUnits="userSpaceOnUse">
<stop stop-color="#242424"/>
<stop offset="1" stop-color="#0F0F0F"/>
</linearGradient>
<linearGradient id="paint73_linear_4650_2513" x1="1851.53" y1="148.631" x2="1615.7" y2="148.631" gradientUnits="userSpaceOnUse">
<stop stop-color="#454545"/>
<stop offset="0.66" stop-color="#353535"/>
<stop offset="1" stop-color="#2B2B2B"/>
</linearGradient>
<linearGradient id="paint74_linear_4650_2513" x1="1736.19" y1="82.2796" x2="1605.64" y2="82.2796" gradientUnits="userSpaceOnUse">
<stop stop-color="#1A1A1A"/>
<stop offset="1" stop-color="#2B2B2B"/>
</linearGradient>
<linearGradient id="paint75_linear_4650_2513" x1="1831.49" y1="29.7938" x2="1613.96" y2="29.7938" gradientUnits="userSpaceOnUse">
<stop stop-color="#454545"/>
<stop offset="0.66" stop-color="#353535"/>
<stop offset="1" stop-color="#2B2B2B"/>
</linearGradient>
<linearGradient id="paint76_linear_4650_2513" x1="1834.26" y1="82.2796" x2="1741.65" y2="82.2796" gradientUnits="userSpaceOnUse">
<stop stop-color="#1A1A1A"/>
<stop offset="1" stop-color="#2B2B2B"/>
</linearGradient>
<linearGradient id="paint77_linear_4650_2513" x1="1989.24" y1="74.3156" x2="1849.65" y2="74.3156" gradientUnits="userSpaceOnUse">
<stop stop-color="#454545"/>
<stop offset="0.66" stop-color="#353535"/>
<stop offset="1" stop-color="#2B2B2B"/>
</linearGradient>
<linearGradient id="paint78_linear_4650_2513" x1="2005.92" y1="190.504" x2="1892.7" y2="190.504" gradientUnits="userSpaceOnUse">
<stop stop-color="#1A1A1A"/>
<stop offset="1" stop-color="#2B2B2B"/>
</linearGradient>
<linearGradient id="paint79_linear_4650_2513" x1="1879.04" y1="82.2796" x2="1751.29" y2="82.2796" gradientUnits="userSpaceOnUse">
<stop stop-color="#454545"/>
<stop offset="0.66" stop-color="#353535"/>
<stop offset="1" stop-color="#2B2B2B"/>
</linearGradient>
<linearGradient id="paint80_linear_4650_2513" x1="1879.04" y1="222.956" x2="1751.29" y2="222.956" gradientUnits="userSpaceOnUse">
<stop stop-color="#2B2B2B"/>
<stop offset="1" stop-color="#1A1A1A"/>
</linearGradient>
<linearGradient id="paint81_linear_4650_2513" x1="2005.43" y1="264.82" x2="1869.73" y2="264.82" gradientUnits="userSpaceOnUse">
<stop stop-color="#242424"/>
<stop offset="1" stop-color="#0F0F0F"/>
</linearGradient>
<linearGradient id="paint82_linear_4650_2513" x1="2469.28" y1="142.028" x2="2494.19" y2="424.605" gradientUnits="userSpaceOnUse">
<stop stop-color="#454545"/>
<stop offset="0.66" stop-color="#353535"/>
<stop offset="1" stop-color="#2B2B2B"/>
</linearGradient>
<linearGradient id="paint83_linear_4650_2513" x1="2607.55" y1="128.037" x2="2635.45" y2="444.47" gradientUnits="userSpaceOnUse">
<stop stop-color="#2B2B2B"/>
<stop offset="0.1" stop-color="#272727"/>
<stop offset="0.5" stop-color="#1D1D1D"/>
<stop offset="1" stop-color="#1A1A1A"/>
</linearGradient>
<linearGradient id="paint84_linear_4650_2513" x1="2541.99" y1="299.591" x2="2553.04" y2="424.961" gradientUnits="userSpaceOnUse">
<stop stop-color="#242424"/>
<stop offset="0.02" stop-color="#232323"/>
<stop offset="0.48" stop-color="#181818"/>
<stop offset="1" stop-color="#151515"/>
</linearGradient>
<linearGradient id="paint85_linear_4650_2513" x1="2481.69" y1="578.517" x2="2519.44" y2="1006.75" gradientUnits="userSpaceOnUse">
<stop stop-color="#242424"/>
<stop offset="1" stop-color="#0F0F0F"/>
</linearGradient>
<linearGradient id="paint86_linear_4650_2513" x1="2369.46" y1="597.956" x2="2391.39" y2="846.624" gradientUnits="userSpaceOnUse">
<stop stop-color="#454545"/>
<stop offset="0.66" stop-color="#353535"/>
<stop offset="1" stop-color="#2B2B2B"/>
</linearGradient>
<linearGradient id="paint87_linear_4650_2513" x1="2245.02" y1="600.542" x2="2024.98" y2="600.542" gradientUnits="userSpaceOnUse">
<stop stop-color="#1A1A1A"/>
<stop offset="1" stop-color="#2B2B2B"/>
</linearGradient>
<linearGradient id="paint88_linear_4650_2513" x1="2245.02" y1="415.193" x2="2024.98" y2="415.193" gradientUnits="userSpaceOnUse">
<stop stop-color="#454545"/>
<stop offset="0.66" stop-color="#353535"/>
<stop offset="1" stop-color="#2B2B2B"/>
</linearGradient>
<linearGradient id="paint89_linear_4650_2513" x1="2393.24" y1="394.101" x2="2239.72" y2="394.101" gradientUnits="userSpaceOnUse">
<stop stop-color="#454545"/>
<stop offset="0.53" stop-color="#343434"/>
<stop offset="1" stop-color="#2B2B2B"/>
</linearGradient>
<linearGradient id="paint90_linear_4650_2513" x1="2557.15" y1="600.542" x2="2215.75" y2="600.542" gradientUnits="userSpaceOnUse">
<stop stop-color="#242424"/>
<stop offset="1" stop-color="#0F0F0F"/>
</linearGradient>
<linearGradient id="paint91_linear_4650_2513" x1="2558.48" y1="493.926" x2="2276.8" y2="493.926" gradientUnits="userSpaceOnUse">
<stop stop-color="#1A1A1A"/>
<stop offset="1" stop-color="#2B2B2B"/>
</linearGradient>
<linearGradient id="paint92_linear_4650_2513" x1="2393.24" y1="342.211" x2="2239.72" y2="342.211" gradientUnits="userSpaceOnUse">
<stop stop-color="#242424"/>
<stop offset="1" stop-color="#0F0F0F"/>
</linearGradient>
<linearGradient id="paint93_linear_4650_2513" x1="2560.77" y1="271.264" x2="2382.8" y2="271.264" gradientUnits="userSpaceOnUse">
<stop stop-color="#1A1A1A"/>
<stop offset="1" stop-color="#2B2B2B"/>
</linearGradient>
<linearGradient id="paint94_linear_4650_2513" x1="2557.98" y1="219.578" x2="2254.08" y2="219.578" gradientUnits="userSpaceOnUse">
<stop stop-color="#454545"/>
<stop offset="0.53" stop-color="#343434"/>
<stop offset="1" stop-color="#2B2B2B"/>
</linearGradient>
<linearGradient id="paint95_linear_4650_2513" x1="2643.92" y1="774.265" x2="2462.67" y2="774.265" gradientUnits="userSpaceOnUse">
<stop stop-color="#454545"/>
<stop offset="0.66" stop-color="#353535"/>
<stop offset="1" stop-color="#2B2B2B"/>
</linearGradient>
<linearGradient id="paint96_linear_4650_2513" x1="2794.35" y1="746.48" x2="2584.75" y2="746.48" gradientUnits="userSpaceOnUse">
<stop stop-color="#1A1A1A"/>
<stop offset="0.11" stop-color="#1E1E1E"/>
<stop offset="0.5" stop-color="#272727"/>
<stop offset="1" stop-color="#2B2B2B"/>
</linearGradient>
<linearGradient id="paint97_linear_4650_2513" x1="2031.27" y1="668.894" x2="2108.6" y2="610.244" gradientUnits="userSpaceOnUse">
<stop stop-color="#2B2B2B"/>
<stop offset="1" stop-color="#1A1A1A"/>
</linearGradient>
<linearGradient id="paint98_linear_4650_2513" x1="2053.58" y1="747.218" x2="1997.68" y2="747.218" gradientUnits="userSpaceOnUse">
<stop stop-color="#2B2B2B"/>
<stop offset="1" stop-color="#1A1A1A"/>
</linearGradient>
<linearGradient id="paint99_linear_4650_2513" x1="2640.89" y1="266.607" x2="2727.19" y2="201.142" gradientUnits="userSpaceOnUse">
<stop stop-color="#1A1A1A"/>
<stop offset="1" stop-color="#2B2B2B"/>
</linearGradient>
<linearGradient id="paint100_linear_4650_2513" x1="2646.62" y1="167.652" x2="2818.59" y2="37.2383" gradientUnits="userSpaceOnUse">
<stop stop-color="#454545"/>
<stop offset="0.66" stop-color="#353535"/>
<stop offset="1" stop-color="#2B2B2B"/>
</linearGradient>
<linearGradient id="paint101_linear_4650_2513" x1="2686.84" y1="327.198" x2="2773.15" y2="261.743" gradientUnits="userSpaceOnUse">
<stop stop-color="#151515"/>
<stop offset="0.52" stop-color="#181818"/>
<stop offset="0.98" stop-color="#232323"/>
<stop offset="1" stop-color="#242424"/>
</linearGradient>
<linearGradient id="paint102_linear_4650_2513" x1="2747.37" y1="214.672" x2="2879.29" y2="114.627" gradientUnits="userSpaceOnUse">
<stop stop-color="#1A1A1A"/>
<stop offset="1" stop-color="#2B2B2B"/>
</linearGradient>
<linearGradient id="paint103_linear_4650_2513" x1="2551.43" y1="87.0971" x2="2744.38" y2="-59.23" gradientUnits="userSpaceOnUse">
<stop stop-color="#242424"/>
<stop offset="0.62" stop-color="#1C1C1C"/>
<stop offset="1" stop-color="#151515"/>
</linearGradient>
<linearGradient id="paint104_linear_4650_2513" x1="2239.22" y1="118.722" x2="2638.99" y2="-184.47" gradientUnits="userSpaceOnUse">
<stop stop-color="#454545"/>
<stop offset="0.66" stop-color="#353535"/>
<stop offset="1" stop-color="#2B2B2B"/>
</linearGradient>
<linearGradient id="paint105_linear_4650_2513" x1="2189.38" y1="141.974" x2="2417.19" y2="-30.7951" gradientUnits="userSpaceOnUse">
<stop stop-color="#242424"/>
<stop offset="0.02" stop-color="#232323"/>
<stop offset="0.48" stop-color="#181818"/>
<stop offset="1" stop-color="#151515"/>
</linearGradient>
<linearGradient id="paint106_linear_4650_2513" x1="2449.12" y1="423.779" x2="2525.05" y2="366.187" gradientUnits="userSpaceOnUse">
<stop stop-color="#1A1A1A"/>
<stop offset="1" stop-color="#2B2B2B"/>
</linearGradient>
<linearGradient id="paint107_linear_4650_2513" x1="2470.53" y1="474.016" x2="2503.96" y2="448.658" gradientUnits="userSpaceOnUse">
<stop stop-color="#151515"/>
<stop offset="0.52" stop-color="#181818"/>
<stop offset="0.98" stop-color="#232323"/>
<stop offset="1" stop-color="#242424"/>
</linearGradient>
<linearGradient id="paint108_linear_4650_2513" x1="2543.26" y1="477.296" x2="2507.33" y2="457.955" gradientUnits="userSpaceOnUse">
<stop stop-color="#1A1A1A"/>
<stop offset="1" stop-color="#2B2B2B"/>
</linearGradient>
<linearGradient id="paint109_linear_4650_2513" x1="2627.11" y1="394.243" x2="2647.58" y2="500.955" gradientUnits="userSpaceOnUse">
<stop stop-color="#2B2B2B"/>
<stop offset="0.34" stop-color="#353535"/>
<stop offset="1" stop-color="#454545"/>
</linearGradient>
<linearGradient id="paint110_linear_4650_2513" x1="2568.59" y1="561.913" x2="2644.33" y2="504.472" gradientUnits="userSpaceOnUse">
<stop stop-color="#1A1A1A"/>
<stop offset="1" stop-color="#2B2B2B"/>
</linearGradient>
<linearGradient id="paint111_linear_4650_2513" x1="2527.56" y1="507.81" x2="2603.3" y2="450.377" gradientUnits="userSpaceOnUse">
<stop stop-color="#1A1A1A"/>
<stop offset="0.5" stop-color="#1F1F1F"/>
<stop offset="1" stop-color="#2B2B2B"/>
</linearGradient>
<linearGradient id="paint112_linear_4650_2513" x1="2650.23" y1="521.738" x2="2652.99" y2="580.899" gradientUnits="userSpaceOnUse">
<stop stop-color="#242424"/>
<stop offset="0.02" stop-color="#232323"/>
<stop offset="0.48" stop-color="#181818"/>
<stop offset="1" stop-color="#151515"/>
</linearGradient>
<linearGradient id="paint113_linear_4650_2513" x1="2685.46" y1="517.978" x2="2754.49" y2="465.628" gradientUnits="userSpaceOnUse">
<stop stop-color="#2B2B2B"/>
<stop offset="1" stop-color="#1A1A1A"/>
</linearGradient>
<linearGradient id="paint114_linear_4650_2513" x1="2631.68" y1="634.949" x2="2723.11" y2="565.611" gradientUnits="userSpaceOnUse">
<stop stop-color="#2B2B2B"/>
<stop offset="0.34" stop-color="#353535"/>
<stop offset="1" stop-color="#454545"/>
</linearGradient>
<linearGradient id="paint115_linear_4650_2513" x1="2682.61" y1="724.446" x2="2730.84" y2="687.875" gradientUnits="userSpaceOnUse">
<stop stop-color="#1A1A1A"/>
<stop offset="1" stop-color="#2B2B2B"/>
</linearGradient>
<linearGradient id="paint116_linear_4650_2513" x1="2741.62" y1="742.214" x2="2815.46" y2="686.212" gradientUnits="userSpaceOnUse">
<stop stop-color="#1A1A1A"/>
<stop offset="1" stop-color="#2B2B2B"/>
</linearGradient>
<linearGradient id="paint117_linear_4650_2513" x1="2778.11" y1="627.154" x2="2829.6" y2="588.105" gradientUnits="userSpaceOnUse">
<stop stop-color="#1A1A1A"/>
<stop offset="1" stop-color="#2B2B2B"/>
</linearGradient>
<linearGradient id="paint118_linear_4650_2513" x1="2737.79" y1="534.68" x2="2823.29" y2="469.837" gradientUnits="userSpaceOnUse">
<stop stop-color="#2B2B2B"/>
<stop offset="0.34" stop-color="#353535"/>
<stop offset="1" stop-color="#454545"/>
</linearGradient>
<linearGradient id="paint119_linear_4650_2513" x1="2740.59" y1="411.451" x2="2804.74" y2="362.806" gradientUnits="userSpaceOnUse">
<stop stop-color="#454545"/>
<stop offset="0.66" stop-color="#353535"/>
<stop offset="1" stop-color="#2B2B2B"/>
</linearGradient>
<linearGradient id="paint120_linear_4650_2513" x1="2732.18" y1="527.276" x2="2817.68" y2="462.433" gradientUnits="userSpaceOnUse">
<stop stop-color="#242424"/>
<stop offset="0.02" stop-color="#232323"/>
<stop offset="0.48" stop-color="#181818"/>
<stop offset="1" stop-color="#151515"/>
</linearGradient>
<linearGradient id="paint121_linear_4650_2513" x1="2752.35" y1="426.962" x2="2816.49" y2="378.316" gradientUnits="userSpaceOnUse">
<stop stop-color="#1A1A1A"/>
<stop offset="1" stop-color="#2B2B2B"/>
</linearGradient>
<linearGradient id="paint122_linear_4650_2513" x1="2702.44" y1="505.099" x2="2755.01" y2="465.223" gradientUnits="userSpaceOnUse">
<stop stop-color="#1A1A1A"/>
<stop offset="1" stop-color="#2B2B2B"/>
</linearGradient>
<clipPath id="clip0_4650_2513">
<rect width="2800" height="664" fill="white"/>
</clipPath>
<clipPath id="clip1_4650_2513">
<rect width="2799" height="1200" fill="white"/>
</clipPath>
</defs>
</svg>
