<svg width="18" height="18" viewBox="0 0 18 18" fill="none" xmlns="http://www.w3.org/2000/svg">
<rect width="18" height="18" rx="9" fill="#419FD9"/>
<rect width="18" height="18" rx="9" fill="url(#paint0_linear_4650_2739)"/>
<path d="M4.04526 8.8016C6.6625 7.63735 8.40774 6.8698 9.28097 6.49896C11.7742 5.44013 12.2923 5.2562 12.63 5.25006C12.7043 5.24879 12.8703 5.26758 12.9779 5.3567C13.0687 5.43195 13.0937 5.5336 13.1057 5.60494C13.1176 5.67628 13.1325 5.83881 13.1207 5.9658C12.9856 7.41526 12.4009 10.9327 12.1035 12.5561C11.9777 13.243 11.7299 13.4734 11.49 13.4959C10.9686 13.5449 10.5727 13.1441 10.0677 12.8061C9.27755 12.2773 8.83116 11.9481 8.06416 11.432C7.17776 10.8356 7.75237 10.5078 8.25753 9.97212C8.38973 9.83192 10.6869 7.69858 10.7313 7.50505C10.7369 7.48085 10.7421 7.39062 10.6896 7.34298C10.6371 7.29535 10.5596 7.31164 10.5037 7.32459C10.4244 7.34296 9.16211 8.19483 6.71675 9.88022C6.35844 10.1314 6.0339 10.2538 5.74313 10.2474C5.42257 10.2403 4.80595 10.0624 4.34755 9.91022C3.78531 9.72362 3.33845 9.62496 3.37736 9.30805C3.39763 9.14298 3.62026 8.97417 4.04526 8.8016Z" fill="white"/>
<defs>
<linearGradient id="paint0_linear_4650_2739" x1="9" y1="0" x2="9" y2="17.8664" gradientUnits="userSpaceOnUse">
<stop stop-color="#2AABEE"/>
<stop offset="1" stop-color="#229ED9"/>
</linearGradient>
</defs>
</svg>
