<svg width="18" height="18" viewBox="0 0 18 18" fill="none" xmlns="http://www.w3.org/2000/svg">
<rect width="18" height="18" rx="9" fill="#0DC143"/>
<path d="M12.6608 5.28243C11.6959 4.28919 10.3622 3.75 9 3.75C6.10541 3.75 3.77838 6.10541 3.80676 8.97162C3.80676 9.87973 4.06216 10.7595 4.48784 11.5541L3.75 14.25L6.5027 13.5405C7.26892 13.9662 8.12027 14.1649 8.97162 14.1649C11.8378 14.1649 14.1649 11.8095 14.1649 8.94324C14.1649 7.5527 13.6257 6.2473 12.6608 5.28243ZM9 13.2851C8.23378 13.2851 7.46757 13.0865 6.81487 12.6892L6.64459 12.6041L4.99865 13.0297L5.42432 11.4122L5.31081 11.2419C4.06216 9.22703 4.65811 6.55946 6.70135 5.31081C8.74459 4.06216 11.3838 4.65811 12.6324 6.70135C13.8811 8.74459 13.2851 11.3838 11.2419 12.6324C10.5892 13.0581 9.79459 13.2851 9 13.2851ZM11.4973 10.1351L11.1851 9.99324C11.1851 9.99324 10.7311 9.79459 10.4473 9.6527C10.4189 9.6527 10.3905 9.62432 10.3622 9.62432C10.277 9.62432 10.2203 9.6527 10.1635 9.68108C10.1635 9.68108 10.1351 9.70946 9.73784 10.1635C9.70946 10.2203 9.6527 10.2486 9.59595 10.2486H9.56757C9.53919 10.2486 9.48243 10.2203 9.45405 10.1919L9.31216 10.1351C9 9.99324 8.71622 9.82297 8.48919 9.59595C8.43243 9.53919 8.3473 9.48243 8.29054 9.42568C8.09189 9.22703 7.89324 9 7.75135 8.7446L7.72297 8.68784C7.69459 8.65946 7.69459 8.63108 7.66622 8.57432C7.66622 8.51757 7.66622 8.46081 7.69459 8.43243C7.69459 8.43243 7.80811 8.29054 7.89324 8.20541C7.95 8.14865 7.97838 8.06351 8.03514 8.00676C8.09189 7.92162 8.12027 7.80811 8.09189 7.72297C8.06351 7.58108 7.72297 6.81486 7.63784 6.64459C7.58108 6.55946 7.52432 6.53108 7.43919 6.5027H7.35405C7.2973 6.5027 7.21216 6.5027 7.12703 6.5027C7.07027 6.5027 7.01351 6.53108 6.95676 6.53108L6.92838 6.55946C6.87162 6.58784 6.81487 6.64459 6.75811 6.67297C6.70135 6.72973 6.67297 6.78649 6.61622 6.84324C6.41757 7.09865 6.30405 7.41081 6.30405 7.72297C6.30405 7.95 6.36081 8.17703 6.44595 8.37568L6.47432 8.46081C6.72973 9 7.07027 9.48243 7.52432 9.90811L7.63784 10.0216C7.72297 10.1068 7.80811 10.1635 7.86486 10.2486C8.46081 10.7595 9.14189 11.1284 9.90811 11.327C9.99324 11.3554 10.1068 11.3554 10.1919 11.3838C10.277 11.3838 10.3905 11.3838 10.4757 11.3838C10.6176 11.3838 10.7878 11.327 10.9014 11.2703C10.9865 11.2135 11.0432 11.2135 11.1 11.1568L11.1568 11.1C11.2135 11.0432 11.2703 11.0149 11.327 10.9581C11.3838 10.9014 11.4405 10.8446 11.4689 10.7878C11.5257 10.6743 11.5541 10.5324 11.5824 10.3905C11.5824 10.3338 11.5824 10.2486 11.5824 10.1919C11.5824 10.1919 11.5541 10.1635 11.4973 10.1351Z" fill="white"/>
</svg>
