<svg width="60" height="59" viewBox="0 0 60 59" fill="none" xmlns="http://www.w3.org/2000/svg">
<path d="M43.8398 0.0234375L15.5781 0L0 16.2109V41.0341L15.5234 58.9961H44.168L59.6096 41.0017V16.2995L43.8398 0.0234375Z" fill="#FBAB1A"/>
<path fill-rule="evenodd" clip-rule="evenodd" d="M26.8763 38.2535V32.9115L18.5976 32.8983V45.4334H36.1554L42.8679 41.2947L45.2765 35.7279L41.1042 29.0637L34.576 32.5545L36.0896 35.0668L34.7997 38.2535H26.8763ZM33.8652 14.2145H18.5976V24.515L26.8763 23.8671V20.0457H30.6406L33.0229 22.4258L30.6406 25.4935L15.6757 26.7497V31.3115H33.8784L40.433 27.9265L42.9074 22.3994L40.3672 16.8194L33.8916 14.2145H33.8652ZM55.7138 40.0386L45.0527 52.5605L44.8027 52.8514L42.2098 55.8927H42.1572L39.459 59H44.1709L59.6097 41.0303V23.3911L55.7269 19.4771V40.0253L55.7138 40.0386ZM3.88272 17.1896L20.4797 0H15.5835L0 16.2111V33.0834L3.89588 37.5923V17.1896H3.88272ZM22.6777 0L19.7163 3.10735H41.8281L59.6097 21.1564V16.2905L43.8419 0.0132228H22.6777V0ZM17.492 55.8927L0 35.5428V41.0435L15.5177 59H37.34L40.0381 55.9059H17.492V55.8927Z" fill="black"/>
</svg>
