<svg width="35" height="35" viewBox="0 0 35 35" fill="none" xmlns="http://www.w3.org/2000/svg">
<path fill-rule="evenodd" clip-rule="evenodd" d="M15.6779 22.3145V19.1984L10.8486 19.1906V26.5028H21.0906L25.0063 24.0886L26.4113 20.8413L23.9775 16.9538L20.1693 18.9901L21.0523 20.4556L20.2998 22.3145H15.6779ZM19.7547 8.29178H10.8486V14.3004L15.6779 13.9225V11.6933H17.8737L19.2634 13.0817L17.8737 14.8712L9.14414 15.604V18.2651H19.7624L23.5859 16.2905L25.0293 13.0663L23.5475 9.8113L19.7701 8.29178H19.7547ZM32.4997 23.3558L26.2808 30.6603L26.1349 30.83L24.6224 32.604H24.5917L23.0177 34.4167H25.7664L34.7723 23.9343V13.6448L32.5074 11.3617V23.3481L32.4997 23.3558ZM2.26492 10.0273L11.9465 0H9.0904L0 9.45649V19.2986L2.2726 21.9289V10.0273H2.26492ZM13.2287 0L11.5012 1.81262H24.3997L34.7723 12.3413V9.50276L25.5744 0.00771328H13.2287V0ZM10.2037 32.604L0 20.7333V23.942L9.05201 34.4167H21.7816L23.3556 32.6118H10.2037V32.604Z" fill="#FBAB1A"/>
</svg>
