<svg width="268" height="59" viewBox="0 0 268 59" fill="none" xmlns="http://www.w3.org/2000/svg">
<path fill-rule="evenodd" clip-rule="evenodd" d="M89.9212 52.3489C89.1973 52.3489 88.7629 51.8861 88.7629 50.9076V46.9937C88.7629 45.9888 89.1973 45.526 89.908 45.526C90.7372 45.526 91.1584 45.9623 91.211 46.9672H92.9221C92.8431 44.9706 91.777 43.8599 89.908 43.8599C88.039 43.8599 86.9861 44.9706 86.9861 46.9937V50.9076C86.9861 52.9175 88.1048 54.015 89.908 54.015C91.7112 54.015 92.8826 52.9175 92.9615 50.9341H91.2505C91.1847 51.9126 90.7635 52.3489 89.908 52.3489H89.9212ZM99.1476 45.6846H101.109V53.8431H102.859V45.6846H104.82V44.045H99.1344V45.6846H99.1476ZM114.31 44.045H111.612V53.8431H113.323V50.5506H114.31C116.271 50.5506 117.429 49.3606 117.429 47.311C117.429 45.2615 116.271 44.045 114.31 44.045ZM114.297 48.9242H113.323V45.6846H114.297C115.218 45.6846 115.679 46.2268 115.679 47.311C115.679 48.3953 115.218 48.9374 114.297 48.9374V48.9242ZM126.116 49.6515H129.038V48.078H126.116V45.6582H129.301V44.0318H124.405V53.8299H129.446V52.2035H126.116V49.6382V49.6515ZM136.698 51.0134C136.501 52.1506 136.198 52.4415 135.593 52.4415V53.9885C137.08 53.9885 138.014 53.5257 138.33 51.4233C138.514 50.2862 138.646 48.3689 138.791 45.6582H140.607V53.8299H142.318V44.0318H137.146C136.961 48.1176 136.856 49.9953 136.685 51.0002L136.698 51.0134ZM155.664 44.045H153.69L152.058 46.9144L151.492 48.0647V44.045H149.807V53.8431H151.492V50.7886L152.084 49.8498L154.137 53.8431H156.085L153.045 48.316L155.664 44.045ZM165.443 43.8731C163.509 43.8731 162.364 45.1161 162.364 47.192V50.6961C162.364 52.772 163.509 54.015 165.443 54.015C167.378 54.015 168.51 52.772 168.51 50.6961V47.192C168.51 45.1161 167.365 43.8731 165.443 43.8731ZM166.733 50.6828C166.733 51.7407 166.299 52.3357 165.443 52.3357C164.588 52.3357 164.14 51.7539 164.14 50.6828V47.1788C164.14 46.121 164.588 45.526 165.443 45.526C166.299 45.526 166.733 46.1078 166.733 47.1788V50.6828ZM180.237 48.8052C180.79 48.3689 181.132 47.6019 181.132 46.7689C181.132 45.1161 180.092 44.045 178.553 44.045H175.696V53.8431H178.632C180.316 53.8431 181.474 52.7192 181.474 50.9737C181.474 50.0217 181.014 49.2151 180.237 48.8184V48.8052ZM177.407 45.6582H178.289C179.04 45.6582 179.395 46.0549 179.395 46.835C179.395 47.6152 179.053 48.0647 178.355 48.0647H177.421V45.6582H177.407ZM178.368 52.2035H177.407V49.6647H178.355C179.224 49.6647 179.724 50.101 179.724 50.9473C179.724 51.7936 179.263 52.1902 178.368 52.1902V52.2035ZM195.018 53.8299H196.729V44.0318H195.018V53.8299ZM190.99 47.84H190.227V44.0318H188.477V53.8299H191.004C193.03 53.8299 194.004 52.8646 194.004 50.868C194.004 49.0829 193.044 47.84 191.004 47.84H190.99ZM190.859 52.2431H190.214V49.4796H190.859C191.754 49.4796 192.201 49.9291 192.201 50.868C192.201 51.8068 191.754 52.2564 190.859 52.2564V52.2431ZM207.245 43.0665C208.206 43.0665 208.917 42.4583 208.956 41.3608H207.864C207.851 41.7839 207.574 42.0219 207.219 42.0219C206.864 42.0219 206.587 41.7839 206.574 41.3608H205.468C205.508 42.4318 206.232 43.0665 207.219 43.0665H207.245ZM206.39 48.8184C206.126 49.4002 205.89 50.0746 205.679 50.63L205.639 50.6035C205.771 49.5457 205.85 48.0515 205.85 47.2449V44.045H204.179V53.8431H205.876L207.837 49.3209C208.127 48.6465 208.39 47.8664 208.64 47.192L208.68 47.2317C208.575 48.2631 208.496 49.863 208.496 50.7886V53.8431H210.167V44.045H208.456L206.377 48.8317L206.39 48.8184ZM229.976 44.0318H228.001L226.369 46.9011L225.803 48.0515V44.0318H224.119V53.8299H225.803V50.7754L226.409 49.8366L228.462 53.8299H230.41L227.37 48.3027L229.989 44.0318H229.976ZM237.136 51.0002C236.938 52.1373 236.635 52.4283 236.03 52.4283V53.9753C237.517 53.9753 238.452 53.5125 238.768 51.4101C238.952 50.2729 239.084 48.3556 239.228 45.645H241.045V53.8166H242.756V44.0186H237.583C237.399 48.1044 237.294 49.982 237.122 50.987L237.136 51.0002ZM252.561 48.4085L251.166 44.0318H249.35L251.785 51.0663C251.469 52.1638 251.153 52.4415 250.403 52.4415H249.981V53.9753H250.35C251.982 53.9753 252.706 53.5125 253.298 51.582L255.615 44.0318H253.812L252.548 48.4085H252.561ZM264.999 47.8267H263.907V45.645H267.447V44.0318H262.196V53.8299H264.999C266.973 53.8299 268 52.8514 268 50.8151C268 49.0432 266.986 47.8267 264.999 47.8267ZM264.867 52.1902H263.907V49.4399H264.867C265.697 49.4399 266.223 49.8895 266.223 50.8283C266.223 51.7671 265.71 52.2035 264.867 52.2035V52.1902ZM103.057 25.348C103.057 22.6373 101.74 20.3101 99.5161 19.1994C101.109 17.9565 102.056 15.7615 102.056 13.3682C102.056 8.66088 99.0686 5.57998 94.6989 5.57998H86.5518V33.5329H94.9358C99.7398 33.5329 103.043 30.333 103.043 25.348H103.057ZM91.4479 10.2079H93.9487C96.094 10.2079 97.0943 11.3319 97.0943 13.5665C97.0943 15.8012 96.094 17.0838 94.1066 17.0838H91.4479V10.2212V10.2079ZM94.1856 28.8917H91.4479V21.6589H94.1461C96.6073 21.6589 98.042 22.9018 98.042 25.3348C98.042 27.7678 96.7258 28.8917 94.1856 28.8917ZM137.119 5.60642H132.236V33.5594H137.119V5.60642ZM129.288 25.0968C129.288 19.9796 126.55 16.4755 120.746 16.4755H118.561V5.60642H113.547V33.5594H120.746C126.55 33.5594 129.288 30.809 129.288 25.0968ZM120.378 29.0504H118.548V21.1432H120.378C122.918 21.1432 124.194 22.4258 124.194 25.0968C124.194 27.7678 122.918 29.0504 120.378 29.0504ZM165.154 25.2555H160.271C160.073 28.0455 158.876 29.2884 156.454 29.2884C154.388 29.2884 153.15 27.9661 153.15 25.1761V13.9897C153.15 11.1203 154.388 9.79804 156.414 9.79804C158.797 9.79804 159.994 11.041 160.152 13.9103H165.035C164.798 8.19808 161.771 5.03784 156.454 5.03784C151.137 5.03784 148.109 8.19808 148.109 13.9897V25.1761C148.109 30.928 151.295 34.0354 156.454 34.0354C161.613 34.0354 164.956 30.9148 165.154 25.2555ZM189.503 5.60642H173.288V10.2741H178.895V33.5594H183.909V10.2741H189.516V5.60642H189.503ZM207.048 5.60642H199.335V33.5594H204.218V24.1712H207.035C212.642 24.1712 215.945 20.7729 215.945 14.902C215.945 9.03112 212.642 5.5932 207.035 5.5932L207.048 5.60642ZM207.008 19.5432H204.231V10.2741H207.008C209.627 10.2741 210.944 11.8343 210.944 14.902C210.944 17.9697 209.627 19.53 207.008 19.53V19.5432ZM240.742 28.9314H231.239V21.6192H239.584V17.1499H231.239V10.2476H240.347V5.61964H226.356V33.5726H240.742V28.9446V28.9314ZM253.246 5.60642C252.732 17.2689 252.416 22.6241 251.929 25.4935C251.377 28.733 250.495 29.5661 248.784 29.5661V33.9957C253.035 33.9957 255.707 32.6734 256.615 26.6835C257.128 23.4439 257.523 17.9829 257.931 10.2344H263.104V33.5594H267.987V5.60642H253.232H253.246Z" fill="#FBAB1A"/>
<path fill-rule="evenodd" clip-rule="evenodd" d="M26.8763 38.2535V32.9115L18.5976 32.8983V45.4334H36.1554L42.8679 41.2947L45.2765 35.7279L41.1042 29.0637L34.576 32.5545L36.0896 35.0668L34.7997 38.2535H26.8763ZM33.8652 14.2145H18.5976V24.515L26.8763 23.8671V20.0457H30.6406L33.0229 22.4258L30.6406 25.4935L15.6757 26.7497V31.3115H33.8784L40.433 27.9265L42.9074 22.3994L40.3672 16.8194L33.8916 14.2145H33.8652ZM55.7138 40.0386L45.0527 52.5605L44.8027 52.8514L42.2098 55.8927H42.1572L39.459 59H44.1709L59.6097 41.0303V23.3911L55.7269 19.4771V40.0253L55.7138 40.0386ZM3.88272 17.1896L20.4797 0H15.5835L0 16.2111V33.0834L3.89588 37.5923V17.1896H3.88272ZM22.6777 0L19.7163 3.10735H41.8281L59.6097 21.1564V16.2905L43.8419 0.0132228H22.6777V0ZM17.492 55.8927L0 35.5428V41.0435L15.5177 59H37.34L40.0381 55.9059H17.492V55.8927Z" fill="#FBAB1A"/>
</svg>
